<?xml version="1.0" encoding="utf-8"?>
<!DOCTYPE svg PUBLIC "-//W3C//DTD SVG 1.1//EN" "http://www.w3.org/Graphics/SVG/1.1/DTD/svg11.dtd">
<svg version="1.1" id="Layer_1" xmlns="http://www.w3.org/2000/svg" xmlns:xlink="http://www.w3.org/1999/xlink" x="0px" y="0px"
	 viewBox="0 0 1419.7804 2010.3085" enable-background="new 0 0 1419.7804 2010.3085" xml:space="preserve">
<g>
	<path d="M711.5775,1371.9835c-47.7783,0-95.592-1.1432-143.325,0.329c-45.6251,1.407-91.2681,0.3245-136.8459,2.1455
		c-43.4533,1.736-86.9633,0.0994-130.3405,2.2358c-42.4743,2.092-84.9463,0.4861-127.3694,2.2085
		c-40.462,1.6428-80.912,1.7789-121.3831,1.37c-3.8209-0.0387-7.6539,0.2485-11.4674,0.556
		c-5.7341,0.4626-7.5562-2.3374-6.4536-7.5592c9.6295-45.6066,22.3431-90.2701,39.7336-133.5981
		c18.9426-47.1951,41.6655-92.4385,68.8857-135.3673c9.6689-15.2485,20.6451-29.6674,30.9931-44.4612
		c14.7266-21.0536,30.6597-40.9836,47.5987-60.2039c2.4426-2.7717,2.6046-5.4287,0.024-8.4141
		c-18.1725-21.0225-30.9189-45.3436-40.9912-70.9272c-6.7406-17.1208-10.9079-35.1525-12.8721-53.6239
		c-5.5258-51.9635,1.1242-103.7419,2.2134-155.5986c0.3732-17.7673,0.3879-35.551,2.3055-53.328
		c2.8777-26.678,9.0928-52.2794,19.5083-77.0094c10.8006-25.6442,25.0378-49.1496,42.8503-70.4137
		c26.4491-31.5743,58.2068-56.6252,95.6499-73.8498c24.6887-11.3573,50.6902-18.601,77.8142-22.2472
		c23.8663-3.2083,47.6384-2.4095,71.0787,1.1312c28.0219,4.2327,54.4653,13.9936,79.5671,27.7069
		c30.2314,16.5157,54.5383,39.4674,75.832,65.9725c12.2535,15.2524,21.1206,32.5819,29.4195,50.243
		c11.5799,24.6434,23.9734,48.9103,35.2595,73.6843c13.294,29.1815,28.4974,57.4182,41.5615,86.7295
		c13.2533,29.7358,28.9082,58.3966,42.3494,88.0548c7.9222,17.4805,18.9115,33.6036,23.2531,52.7457
		c8.4527,37.2676,1.4619,70.9296-22.963,100.4973c-8.5423,10.3408-8.5993,10.3943,1.8519,19.3802
		c26.4786,22.7662,52.6384,45.9028,79.0101,68.7942c22.6013,19.6185,44.5523,40.0951,68.1987,58.3706
		c24.2466,18.7394,52.6135,28.8789,83.0455,33.7982c39.5596,6.3948,76.6348-3.1089,113.2704-15.9397
		c21.2637-7.4471,52.9264,1.2429,67.8572,20.3247c23.4364,29.9523,46.4576,60.2306,69.5349,90.4624
		c25.9365,33.9778,51.8579,67.9688,77.551,102.1305c12.4534,16.5581,26.1487,32.2977,35.6952,50.8771
		c8.9606,17.4392,9.723,36.2273,6.7212,54.9763c-2.7863,17.4031-10.8678,32.748-22.6293,46.0179
		c-7.5825,8.5549-10.9399,8.2467-17.9091-0.6074c-23.6616-30.0614-47.417-60.0498-71.3065-89.9303
		c-22.9359-28.6877-46.0739-57.2142-69.1708-85.7729c-0.9708-1.2004-1.8224-3.41-3.752-2.7161
		c-2.2122,0.7954-0.8801,2.9716-0.6674,4.4196c3.8286,26.0573,7.0121,52.2007,11.01,78.2446
		c3.2609,21.2427,6.2073,42.584,9.3401,63.8761c3.4299,23.3134,6.6497,46.6578,10.032,69.9785
		c1.9713,13.593,3.8743,27.2015,6.1953,40.7367c1.7815,10.3899,0.7886,12.0082-9.7949,13.8269
		c-17.0197,2.9249-34.0029,6.0604-51.0234,8.9805c-8.3486,1.4325-6.4951,7.6289-5.9604,12.8453
		c0.8961,8.7415,2.6407,17.3989,3.4603,26.1449c1.9469,20.7791,2.491,41.7496,5.5791,62.3464
		c3.9174,26.1277,5.4128,52.4509,8.036,78.6622c3.1019,30.9949,7.5908,61.8606,7.7913,93.2025
		c0.1521,23.793-16.7233,42.543-37.6237,46.076c-22.0005,3.719-41.7408-4.7495-48.2837-30.1647
		c-2.9364-11.4065-3.3329-23.3395-4.7515-35.0575c-3.2545-26.8826-7.3411-53.6639-11.0446-80.4927
		c-4.1368-29.9684-8.1981-59.9474-12.3423-89.9148c-2.5038-18.1055-5.7979-36.1372-7.3871-54.3199
		c-0.8964-10.2538-6.2843-10.6042-13.6716-9.3162c-13.0723,2.2789-26.063,5.0649-39.1774,7.0459
		c-6.4547,0.9749-8.6761,4.6156-9.2954,10.3372c-2.142,19.7908-5.0176,39.4508-8.7302,59.0338
		c-2.6812,14.1428-3.4182,28.644-5.364,42.939c-3.3087,24.3069-6.8331,48.5851-10.3671,72.8606
		c-3.1815,21.8549-6.2791,43.7257-9.8223,65.5231c-2.9503,18.1499-3.0442,37.0262-9.4174,54.3073
		c-11.1692,30.2855-48.7487,40.5156-72.2323,20.8977c-12.3686-10.3324-14.4862-24.7802-12.7888-40.0359
		c4.6465-41.761,9.3746-83.5132,13.9248-125.2847c4.735-43.4686,9.2131-86.9652,13.9683-130.4315
		c3.4324-31.3741,7.6736-62.6698,10.5212-94.0941c1.8146-20.0258,4.7861-39.9114,5.939-60.0394
		c1.2798-22.3455,4.6176-44.5728,7.0421-66.8533c2.5707-23.6244,5.4286-47.2229,7.5975-70.8843
		c2.3807-25.9734,6.6812-51.7609,7.3723-77.9093c0.1105-4.1807-1.0905-7.0527-3.7727-9.7188
		c-33.7814-33.5784-67.5948-67.1245-101.3562-100.7231c-30.7901-30.6416-61.4222-61.4429-92.3348-91.9603
		c-13.7145-13.5393-28.2-26.2986-41.8876-39.864c-20.9152-20.7285-28.1257-60.8474-16.9404-88.0786
		c4.0685-9.9049,8.3535-19.5344,14.9381-28.0084c2.7668-3.5608,2.9301-7.0248,0.9506-11.1245
		c-11.7017-24.2354-23.129-48.6033-34.8564-72.826c-16.5752-34.2355-33.4761-68.3137-49.9661-102.59
		c-14.4039-29.9401-28.3687-60.091-42.6549-90.0881c-6.4962-13.6401-13.3084-27.1296-19.9597-40.6959
		c-2.508-5.1155-6.4452-8.5504-12.2336-7.243c-6.3468,1.4333-10.4537,5.6164-10.5768,12.6992
		c-0.2693,15.494-0.3613,30.9943-0.8821,46.4801c-1.4086,41.8827-3.05,83.7575-4.5064,125.6387
		c-0.838,24.0964-1.1218,48.219-2.4017,72.2901c-0.5911,11.1183-1.1342,22.2347-1.6955,33.3527
		c-0.7623,15.1014,3.6427,27.1808,14.9347,37.7665c28.2939,26.5244,54.2534,55.426,77.9694,85.9926
		c24.4476,31.5098,46.0358,65.1274,64.6453,100.6064c15.5496,29.6456,29.6218,60.0099,40.1351,91.6407
		c10.8618,32.6793,21.8301,65.4464,27.1569,99.8401c2.9405,18.9865,7.1876,37.7632,8.7806,56.9932
		c0.6458,7.7968-3.1812,10.1361-9.9041,10.145c-13.8315,0.0184-27.6629,0.0055-41.4944,0.0055
		C711.5814,1370.1105,711.5794,1371.047,711.5775,1371.9835z M317.449,615.3524c-0.6209-5.6368-4.6672-11.1653-11.6781-13.2394
		c-7.0023-2.0717-13.0817,0.2418-16.3218,7.5894c-3.9406,8.9362-3.7523,18.5594-4.0863,27.9257
		c-1.6007,44.8927-2.293,89.8211-4.1977,134.699c-2.2498,53.0084-1.8802,106.1528-7.7353,158.9888
		c-0.2212,1.9961,0.0912,4.1544,2.2335,5.174c2.377,1.1312,4.1745-0.2491,5.7435-1.8284
		c4.4611-4.4902,9.1859-8.7686,13.2261-13.6147c5.4357-6.52,10.0835-13.4774,11.439-22.3203
		c5.3177-34.691,1.2863-69.6857,3.7052-104.5397c2.2046-31.7653,1.2211-63.7847,3.3309-95.6592
		C314.8989,671.4691,315.9641,644.3626,317.449,615.3524z"/>
	<path d="M587.5703,192.1892c5.5876-79.9072-54.6602-144.6848-134.5674-144.6848S303.7884,112.282,298.2008,192.1892
		s54.6602,144.6848,134.5674,144.6848S581.9827,272.0964,587.5703,192.1892z"/>
	<path d="M1181.4121,939.6086c4.9414-70.6654-48.3384-127.951-119.0038-127.951s-131.9568,57.2856-136.8982,127.951
		s48.3384,127.951,119.0038,127.951S1176.4707,1010.2739,1181.4121,939.6086z"/>
	<path d="M301.4711,1855.8376h-0.0001c-29.6243-1.5526-52.381-26.8264-50.8285-56.4508l19.5627-373.2781
		c0.3964-7.5632,6.8489-13.3732,14.4121-12.9768l79.8905,4.1869c7.5632,0.3964,13.3731,6.849,12.9767,14.4122l-19.5627,373.2781
		C356.3693,1834.6335,331.0954,1857.3901,301.4711,1855.8376z"/>
	<path d="M440.9018,1964.8466L440.9018,1964.8466c-29.6245-1.5525-52.3811-26.8264-50.8286-56.4508l25.4852-486.287
		c0.3964-7.5632,6.8489-13.3732,14.4122-12.9768l79.8904,4.1869c7.5633,0.3964,13.3731,6.849,12.9768,14.4122l-25.4852,486.287
		C495.8,1943.6425,470.5262,1966.399,440.9018,1964.8466z"/>
</g>
</svg>
